HIERARCHY
ROOT Hips
{
	OFFSET -0.001795 -0.223333 0.028219
	CHANNELS 6 Xposition Yposition Zposition Zrotation Yrotation Xrotation 
	JOINT LeftUpLeg
	{
		OFFSET 0.069520 -0.091406 -0.006815
		CHANNELS 3 Zrotation Yrotation Xrotation
		JOINT LeftLeg
		{
			OFFSET 0.034277 -0.375199 -0.004496
			CHANNELS 3 Zrotation Yrotation Xrotation
			JOINT LeftFoot
			{
				OFFSET -0.013596 -0.397961 -0.043693
				CHANNELS 3 Zrotation Yrotation Xrotation
				JOINT LeftToe
				{
					OFFSET 0.026358 -0.055791 0.119288
					CHANNELS 3 Zrotation Yrotation Xrotation
					End Site
					{
						OFFSET 0.000000 0.000000 0.000000
					}
				}
			}
		}
	}
	JOINT RightUpLeg
	{
		OFFSET -0.067670 -0.090522 -0.004320
		CHANNELS 3 Zrotation Yrotation Xrotation
		JOINT RightLeg
		{
			OFFSET -0.038290 -0.382569 -0.008850
			CHANNELS 3 Zrotation Yrotation Xrotation
			JOINT RightFoot
			{
				OFFSET 0.015774 -0.398415 -0.042312
				CHANNELS 3 Zrotation Yrotation Xrotation
				JOINT RightToe
				{
					OFFSET -0.025372 -0.048144 0.123348
					CHANNELS 3 Zrotation Yrotation Xrotation
					End Site
					{
						OFFSET 0.000000 0.000000 0.000000
					}
				}
			}
		}
	}
	JOINT Spine
	{
		OFFSET -0.002533 0.108963 -0.026696
		CHANNELS 3 Zrotation Yrotation Xrotation
		JOINT Spine1
		{
			OFFSET 0.005487 0.135180 0.001092
			CHANNELS 3 Zrotation Yrotation Xrotation
			JOINT Spine2
			{
				OFFSET 0.001457 0.052922 0.025425
				CHANNELS 3 Zrotation Yrotation Xrotation
				JOINT Neck
				{
					OFFSET -0.002778 0.213870 -0.042857
					CHANNELS 3 Zrotation Yrotation Xrotation
					JOINT Head
					{
						OFFSET 0.005152 0.064970 0.051349
						CHANNELS 3 Zrotation Yrotation Xrotation
						End Site
						{
							OFFSET 0.000000 0.000000 0.000000
						}
					}
				}
				JOINT LeftShoulder
				{
					OFFSET 0.078845 0.121749 -0.034090
					CHANNELS 3 Zrotation Yrotation Xrotation
					JOINT LeftArm
					{
						OFFSET 0.090977 0.030469 -0.008868
						CHANNELS 3 Zrotation Yrotation Xrotation
						JOINT LeftForeArm
						{
							OFFSET 0.259612 -0.012772 -0.027456
							CHANNELS 3 Zrotation Yrotation Xrotation
							JOINT LeftHand
							{
								OFFSET 0.249234 0.008986 -0.001171
								CHANNELS 3 Zrotation Yrotation Xrotation
								End Site
								{
									OFFSET 0.000000 0.000000 0.000000
								}
							}
						}
					}
				}
				JOINT RightShoulder
				{
					OFFSET -0.081759 0.118833 -0.038615
					CHANNELS 3 Zrotation Yrotation Xrotation
					JOINT RightArm
					{
						OFFSET -0.096012 0.032551 -0.009143
						CHANNELS 3 Zrotation Yrotation Xrotation
						JOINT RightForeArm
						{
							OFFSET -0.253742 -0.013329 -0.021401
							CHANNELS 3 Zrotation Yrotation Xrotation
							JOINT RightHand
							{
								OFFSET -0.255298 0.007772 -0.005559
								CHANNELS 3 Zrotation Yrotation Xrotation
								End Site
								{
									OFFSET 0.000000 0.000000 0.000000
								}
							}
						}
					}
				}
			}
		}
	}
}
MOTION
Frames: 9
Frame Time: 0.050000
0.030388 0.949375 -2.695922 -1.404126 7.765327 -7.663457 -0.145874 1.286185 18.412146 -0.283907 -0.186904 5.561976 -1.774575 1.562072 9.511455 0.000000 0.000000 0.000000 0.319782 1.698323 -18.472785 1.943066 -0.179920 4.222416 -3.883796 -12.568757 25.790929 0.000000 0.000000 0.000000 -5.269544 -0.241957 18.620890 8.901007 -1.214039 -27.755216 -2.016982 -2.515573 30.105992 0.241076 2.263515 -36.728084 0.000000 0.000000 0.000000 -30.597272 3.149648 -4.866219 -43.530226 -12.943154 -3.033193 -11.537045 -37.474671 5.873460 0.000000 0.000000 0.000000 24.296588 0.182401 -0.375973 53.374758 4.679468 -6.382546 4.075371 31.470331 2.917943 0.000000 0.000000 0.000000 
0.030865 0.957362 -2.747799 -1.525572 6.736801 -7.959030 -1.300914 1.373387 16.183935 -0.047932 -0.147982 3.937111 -0.410751 4.101031 10.272537 0.000000 0.000000 0.000000 0.059179 1.727711 -19.013905 2.725827 -0.297219 12.725480 -5.321331 -14.517923 20.511422 0.000000 0.000000 0.000000 -5.510943 -0.185106 18.888314 9.223367 -1.333560 -27.441597 -2.136960 -1.154576 30.975510 -0.855309 2.923016 -36.735489 0.000000 0.000000 0.000000 -30.156201 3.485266 -5.246383 -43.330837 -12.396766 -3.215510 -11.996496 -36.991628 5.897998 0.000000 0.000000 0.000000 23.790303 0.931241 0.347326 53.849120 5.894206 -6.024744 4.434076 31.570779 3.085917 0.000000 0.000000 0.000000 
0.029903 0.966430 -2.795450 -1.765389 6.999462 -8.393483 -1.079805 1.177001 14.122454 -0.717421 -0.042837 3.476122 -0.625011 3.772289 10.231104 0.000000 0.000000 0.000000 -0.547618 1.629604 -19.231959 3.818619 -0.882296 24.978776 -6.353191 -16.118827 19.373394 0.000000 0.000000 0.000000 -5.279687 -0.241768 19.111015 8.333519 -1.182534 -26.767008 -1.432782 -1.480081 30.317194 -1.114572 2.961223 -34.528665 0.000000 0.000000 0.000000 -31.697801 3.835968 -5.754769 -42.525191 -10.383538 -3.771166 -10.761283 -36.178405 5.326143 0.000000 0.000000 0.000000 23.165240 1.384948 0.556390 54.255319 5.416373 -6.178758 5.088382 32.611282 3.369453 0.000000 0.000000 0.000000 
0.027635 0.972794 -2.840533 -1.615253 7.188767 -8.658182 -1.062404 1.037279 12.331178 -1.112922 0.046037 2.236551 -1.640926 2.596902 11.351993 0.000000 0.000000 0.000000 -1.279677 1.306911 -16.468091 4.723734 -1.740251 34.954518 -5.684675 -15.167638 18.567714 0.000000 0.000000 0.000000 -5.655312 -0.185481 18.367223 8.951292 -1.350066 -26.635434 -2.096867 0.057227 30.936759 -0.635130 2.999492 -34.369146 0.000000 0.000000 0.000000 -30.951001 4.856162 -6.975445 -43.180619 -8.748474 -4.191701 -11.034228 -34.720222 5.059222 0.000000 0.000000 0.000000 23.426754 0.355654 0.472213 53.784014 6.151466 -5.998027 6.163375 32.440825 3.786964 0.000000 0.000000 0.000000 
0.024145 0.973413 -2.884211 -1.369419 7.670715 -8.909520 -1.251185 0.868602 10.009279 -1.438941 0.068418 2.715477 -2.007014 1.488666 10.113360 0.000000 0.000000 0.000000 -1.034822 1.004760 -11.960160 4.708230 -2.345409 42.599364 -4.754648 -13.687776 17.440645 0.000000 0.000000 0.000000 -6.023886 -0.154360 18.359955 7.663260 -1.010912 -26.871350 -1.028925 -0.473170 31.399450 -0.765290 2.988768 -33.262561 0.000000 0.000000 0.000000 -30.746052 5.757110 -7.437597 -43.492461 -7.144921 -4.824942 -11.253887 -33.044779 4.890917 0.000000 0.000000 0.000000 22.107523 0.702639 0.640413 54.208087 6.346443 -5.940665 6.263405 33.123684 3.917412 0.000000 0.000000 0.000000 
0.019565 0.971292 -2.927933 -0.682719 7.134396 -8.495338 -1.845641 0.628313 6.498887 -1.976777 0.124537 3.143468 -1.920103 1.946906 10.933975 0.000000 0.000000 0.000000 -0.979818 0.604846 -6.890587 4.224322 -2.283502 47.765064 -3.615607 -13.178207 27.643683 0.000000 0.000000 0.000000 -6.961638 0.004410 17.574149 7.174390 -0.949472 -26.183073 -0.058779 0.911453 30.857428 -1.457513 3.514786 -32.579955 0.000000 0.000000 0.000000 -30.448162 6.314275 -8.211708 -43.783431 -4.547777 -5.529494 -11.001791 -31.755589 4.515646 0.000000 0.000000 0.000000 21.559876 0.235646 0.605133 54.481209 6.861667 -5.656965 6.253423 33.036148 3.957224 0.000000 0.000000 0.000000 
0.014256 0.965091 -2.972784 0.260842 6.408731 -8.130783 -3.191926 0.301287 2.648522 -1.666154 0.079384 3.545738 -1.360031 3.435668 12.509575 0.000000 0.000000 0.000000 -1.445256 0.143691 -1.821113 3.347313 -1.618242 50.010434 -0.179288 -10.542396 38.351883 0.000000 0.000000 0.000000 -8.219447 0.201128 17.307082 7.510331 -1.051031 -26.051322 0.686335 2.411146 31.154543 -2.002243 3.977172 -32.178671 0.000000 0.000000 0.000000 -31.592151 7.097332 -9.451929 -43.014359 -2.772628 -5.867345 -10.479613 -30.435566 4.106321 0.000000 0.000000 0.000000 20.639647 0.544476 1.034121 54.761744 9.199688 -4.656855 3.829623 32.826655 3.326720 0.000000 0.000000 0.000000 
0.007787 0.957939 -3.020329 0.996611 5.335823 -7.710690 -3.436288 -0.174069 -1.460411 -3.172340 0.281650 3.638756 0.398909 6.939337 15.103547 0.000000 0.000000 0.000000 -2.054985 -0.384094 4.210628 2.753546 -0.789413 47.387918 3.834746 -5.864497 37.738730 0.000000 0.000000 0.000000 -8.433098 0.266540 16.542676 7.217364 -1.097621 -24.728177 1.273055 4.680404 30.861716 -3.547278 5.051522 -30.911174 0.000000 0.000000 0.000000 -31.780096 6.999517 -10.156152 -43.731931 -1.229733 -6.200117 -8.198197 -29.471433 3.262635 0.000000 0.000000 0.000000 21.711168 1.826243 2.215080 52.430412 11.696463 -3.585189 1.740536 32.451684 2.709124 0.000000 0.000000 0.000000 
-0.000299 0.951086 -3.073155 2.090276 4.717943 -6.376141 -4.072672 -0.786631 -6.188522 -3.349255 0.310469 3.659799 0.211305 7.033315 16.681251 0.000000 0.000000 0.000000 -2.075265 -0.871498 9.750461 1.600301 0.147043 37.995336 3.629750 -4.053205 30.126336 0.000000 0.000000 0.000000 -8.974553 0.367365 15.434829 6.752983 -1.095952 -23.160987 1.660756 6.377567 30.134105 -4.194341 5.581826 -31.006542 0.000000 0.000000 0.000000 -32.710679 6.213402 -10.512444 -43.133113 -0.126105 -6.187526 -6.218519 -29.038232 2.609610 0.000000 0.000000 0.000000 21.506007 3.806161 3.681899 50.738699 13.842906 -2.658394 0.170245 33.295783 2.353746 0.000000 0.000000 0.000000 
